PathFileType	4	(X/Y/Z)	/Users/itak/Documents/Research/Walk-IL/dataset/trc/00479_00167.trc
DataRate	CameraRate	NumFrames	NumMarkers	Units	OrigDataRate	OrigDataStartFrame	OrigNumFrames
100.000000	100.000000	4	53	mm	100.000000	378	605
Frame#	Time	RPSI			LPSI			L3			STRN			T10			C7			CLAV			RBAK			LBAK			LSHO			LUPA			LAEL			LAOL			LWTS			LWPS			LFRA			LIFD			LHPS			LHTS			RSHO			RUPA			RAEL			RAOL			RWTS			RWPS			RFRA			RIFD			RHTS			RHPS			RBHD			LFHD			RFHD			LBHD			LHIP			RHIP			RASI			LASI			LKNE			LTHI			LANK			LTIP			LTOE			LMT1			LMT5			LHEE			RKNE			RTHI			RANK			RTIP			RTOE			RMT1			RMT5			RHEE			
		X1	Y1	Z1	X2	Y2	Z2	X3	Y3	Z3	X4	Y4	Z4	X5	Y5	Z5	X6	Y6	Z6	X7	Y7	Z7	X8	Y8	Z8	X9	Y9	Z9	X10	Y10	Z10	X11	Y11	Z11	X12	Y12	Z12	X13	Y13	Z13	X14	Y14	Z14	X15	Y15	Z15	X16	Y16	Z16	X17	Y17	Z17	X18	Y18	Z18	X19	Y19	Z19	X20	Y20	Z20	X21	Y21	Z21	X22	Y22	Z22	X23	Y23	Z23	X24	Y24	Z24	X25	Y25	Z25	X26	Y26	Z26	X27	Y27	Z27	X28	Y28	Z28	X29	Y29	Z29	X30	Y30	Z30	X31	Y31	Z31	X32	Y32	Z32	X33	Y33	Z33	X34	Y34	Z34	X35	Y35	Z35	X36	Y36	Z36	X37	Y37	Z37	X38	Y38	Z38	X39	Y39	Z39	X40	Y40	Z40	X41	Y41	Z41	X42	Y42	Z42	X43	Y43	Z43	X44	Y44	Z44	X45	Y45	Z45	X46	Y46	Z46	X47	Y47	Z47	X48	Y48	Z48	X49	Y49	Z49	X50	Y50	Z50	X51	Y51	Z51	X52	Y52	Z52	X53	Y53	Z53	

379	3.78	328.5483093261719	1001.829650878906	-165.1032409667969	249.057373046875	981.4740600585938	-48.09622573852539	246.6581878662109	1087.516357421875	-134.6840515136719	-7.490803241729736	1191.970703125	-326.9787292480469	214.6559295654297	1205.46728515625	-132.8757476806641	112.7326507568359	1443.416137695312	-217.9715423583984	-6.523996353149414	1311.271484375	-321.5342407226562	242.9105072021484	1346.675170898438	-221.5783386230469	78.55447387695312	1403.705444335938	-115.1794662475586	-49.26880645751953	1397.834838867188	-133.8608856201172	-98.98490905761719	1279.494140625	-50.53637313842773	-112.6098098754883	1056.705932617188	-57.27383422851562	-18.85943794250488	1051.027465820312	-15.18363475799561	-74.60481262207031	895.5516357421875	-204.5113372802734	-102.6337432861328	855.5498046875	-147.4454498291016	-116.6503829956055	974.887451171875	-96.29993438720703	-55.82517242431641	745.3843994140625	-254.2424468994141	-91.376708984375	784.395751953125	-178.0495910644531	-74.2298583984375	816.3428955078125	-240.8724670410156	182.3154296875	1406.70947265625	-369.442626953125	265.792236328125	1371.642944335938	-392.9867858886719	442.2536315917969	1151.03857421875	-359.6809997558594	438.8330383300781	1148.655029296875	-291.8930969238281	468.8585205078125	917.2667846679688	-361.2525939941406	547.068115234375	954.4971923828125	-341.9490356445312	477.4521179199219	1103.635620117188	-354.2342834472656	553.126220703125	791.2901611328125	-322.3364562988281	519.3240356445312	831.9138793945312	-350.6748046875	581.8455200195312	874.223876953125	-328.3732604980469	30.74126815795898	1613.65966796875	-387.9151000976562	-146.1243896484375	1581.505493164062	-286.3231506347656	-102.8753128051758	1587.292724609375	-409.4207153320312	-14.4450855255127	1615.225341796875	-215.9333953857422	112.9943313598633	826.5421752929688	-28.85427474975586	339.8187866210938	898.0427856445312	-351.1142578125	212.5355529785156	899.0494995117188	-350.2845764160156	63.96738052368164	853.7568969726562	-148.5067749023438	205.2398223876953	420.9910583496094	-106.2664489746094	147.5133056640625	562.2875366210938	-81.02079772949219	363.2446594238281	31.41280937194824	-110.9278182983398	246.5929412841797	272.3052673339844	-106.2201690673828	233.2335205078125	73.66475677490234	-302.0846252441406	307.1825256347656	66.17906188964844	-278.3857727050781	233.0961761474609	36.79216003417969	-198.6809997558594	439.1002197265625	46.77724838256836	-133.5817718505859	411.4972534179688	517.0691528320312	-396.2426452636719	338.9588317871094	765.5106811523438	-396.4946594238281	662.0230712890625	159.0733337402344	-379.4551086425781	482.2490234375	393.8796081542969	-408.5619506835938	474.0965270996094	64.45603179931641	-429.2263488769531	507.6750183105469	84.88426971435547	-368.4866027832031	569.2003173828125	101.2876586914062	-452.6240539550781	697.328857421875	176.7357635498047	-311.7185363769531	
380	3.79	333.1322326660156	999.2573852539062	-172.8703765869141	257.835205078125	980.7003784179688	-52.67819213867188	251.8948669433594	1086.299438476562	-138.9407806396484	-8.960858345031738	1190.4521484375	-322.5139770507812	219.3368835449219	1204.56640625	-136.3931274414062	114.7888412475586	1442.07666015625	-217.9853363037109	-7.540126323699951	1309.776000976562	-317.6596069335938	244.8260803222656	1345.01806640625	-225.1314544677734	83.50577545166016	1402.520263671875	-114.1141586303711	-44.91363906860352	1396.53955078125	-128.9695129394531	-92.68383026123047	1278.031127929688	-44.5707893371582	-108.8975296020508	1055.652465820312	-51.7088623046875	-13.82253456115723	1048.827270507812	-12.7239408493042	-77.58918762207031	893.853271484375	-199.8312225341797	-104.2216873168945	854.3916015625	-141.5517272949219	-115.102897644043	973.832763671875	-90.44394683837891	-63.55335998535156	743.2802734375	-249.3899230957031	-95.41300964355469	783.2059326171875	-172.2310791015625	-79.93117523193359	814.6030883789062	-235.7555084228516	179.9986572265625	1404.789794921875	-371.5050659179688	262.7757263183594	1369.022705078125	-397.1972351074219	438.7001647949219	1147.594482421875	-367.7117919921875	436.7327270507812	1145.309326171875	-299.8181457519531	465.4246826171875	913.8629150390625	-369.3038024902344	543.9608764648438	951.2822875976562	-351.483642578125	473.9933471679688	1100.237548828125	-362.8709716796875	550.84619140625	788.220458984375	-331.5601196289062	516.3523559570312	828.6088256835938	-359.3869018554688	579.2237548828125	871.1842651367188	-338.35693359375	29.43054962158203	1611.863525390625	-386.5147705078125	-145.8222808837891	1580.419799804688	-282.02001953125	-104.5178833007812	1585.467407226562	-405.7647094726562	-13.09665393829346	1614.39013671875	-213.8807525634766	121.3051147460938	827.0408935546875	-27.14288330078125	335.1213073730469	894.0333251953125	-359.0694274902344	208.1511688232422	896.8472900390625	-352.5684204101562	67.75997924804688	853.58447265625	-144.6152648925781	209.1732330322266	420.8989868164062	-105.0283203125	153.3053283691406	562.780517578125	-79.37454223632812	364.8725891113281	31.21567153930664	-111.4779205322266	250.0502471923828	271.8576965332031	-105.7086791992188	229.8488159179688	73.91873931884766	-299.3652954101562	304.4580383300781	65.86634063720703	-277.4768981933594	232.5879974365234	36.91837310791016	-195.0621795654297	440.63818359375	44.8885498046875	-135.9755554199219	394.8966979980469	510.7405395507812	-406.6672058105469	329.4057006835938	761.0779418945312	-404.0730285644531	639.9299926757812	148.71728515625	-400.1359558105469	462.4080810546875	385.9028015136719	-421.4389343261719	446.5648193359375	59.10861206054688	-436.9658203125	484.653076171875	78.56393432617188	-378.6979675292969	541.1021118164062	92.3748779296875	-466.6809387207031	679.7806396484375	166.1967010498047	-334.8154296875	
381	3.8	337.1855773925781	996.9388427734375	-180.4733276367188	265.9186401367188	980.1321411132812	-57.4734992980957	256.7105712890625	1085.355590820312	-143.2661590576172	-10.29499053955078	1189.290283203125	-318.206298828125	223.71630859375	1203.860107421875	-139.7814788818359	116.7028884887695	1441.016235351562	-218.0236968994141	-8.493524551391602	1308.624633789062	-313.8209228515625	246.5577087402344	1343.683715820312	-228.6732482910156	88.28340148925781	1401.559936523438	-113.1830520629883	-40.60741424560547	1395.4580078125	-124.2283782958984	-86.31550598144531	1276.686645507812	-38.86616134643555	-105.1289749145508	1054.778442382812	-46.32634353637695	-8.773856163024902	1046.808227539062	-10.58030700683594	-80.58418273925781	892.3196411132812	-195.0187835693359	-105.7739639282227	853.432373046875	-135.5606689453125	-113.4618377685547	972.9620971679688	-84.69091033935547	-71.47291564941406	741.3496704101562	-244.066650390625	-99.55525207519531	782.2720336914062	-166.1311492919922	-85.70457458496094	813.0464477539062	-230.3418579101562	177.587158203125	1403.23193359375	-373.4586791992188	259.5671081542969	1366.687377929688	-401.3324584960938	434.5740356445312	1144.152099609375	-376.0224914550781	434.1271667480469	1141.9228515625	-308.0503540039062	461.3153686523438	910.3983154296875	-377.7601013183594	540.1340942382812	947.9952392578125	-361.4921264648438	469.9122924804688	1096.818359375	-371.8497619628906	547.909423828125	785.1222534179688	-341.0618591308594	512.6911010742188	825.19873046875	-368.40087890625	575.9008178710938	868.1150512695312	-348.7405090332031	28.00067329406738	1610.339477539062	-385.1060180664062	-145.6753082275391	1579.465576171875	-277.9336853027344	-106.1976776123047	1583.798706054688	-402.2576904296875	-12.05594348907471	1613.809814453125	-211.9150390625	129.1188201904297	827.8123779296875	-26.02061462402344	330.4337158203125	890.4685668945312	-366.4607543945312	204.0035858154297	895.109375	-354.7604370117188	71.48326873779297	853.6932983398438	-141.3607635498047	212.8194580078125	421.1462707519531	-104.1184844970703	158.7979278564453	563.5405883789062	-77.96731567382812	366.1829833984375	31.27016067504883	-111.8660278320312	253.0055541992188	271.7415771484375	-105.5257034301758	226.7884979248047	73.79673767089844	-297.1006164550781	301.9962158203125	65.51957702636719	-276.5650329589844	232.1412048339844	37.13710403442383	-191.7123565673828	441.7828674316406	43.48214340209961	-137.9096832275391	378.0040893554688	505.2072448730469	-416.2395935058594	320.0498962402344	757.2938842773438	-411.0875244140625	616.4583129882812	138.9427337646484	-419.8605041503906	441.8851928710938	378.7706909179688	-433.4061889648438	418.6969909667969	54.60620880126953	-444.205078125	460.9345092773438	72.92729949951172	-388.5864562988281	512.2933349609375	84.35528564453125	-479.8384704589844	660.4676513671875	155.9681243896484	-357.0698547363281	
382	3.81	340.7151184082031	994.911376953125	-187.8681488037109	273.2676696777344	979.791015625	-62.42269515991211	261.1011657714844	1084.716796875	-147.5996398925781	-11.50011157989502	1188.501098632812	-314.1040344238281	227.7904205322266	1203.381225585938	-143.0521392822266	118.4681625366211	1440.252685546875	-218.1138000488281	-9.393154144287109	1307.834106445312	-310.0694885253906	248.09423828125	1342.692504882812	-232.2208709716797	92.85857391357422	1400.8564453125	-112.4196853637695	-36.37502670288086	1394.629272460938	-119.7004318237305	-79.91139984130859	1275.520263671875	-33.48782730102539	-101.3054046630859	1054.129272460938	-41.11386489868164	-3.722501039505005	1045.04345703125	-8.742059707641602	-83.57280731201172	891.0161743164062	-190.0685272216797	-107.2206802368164	852.7257080078125	-129.4720458984375	-111.7143173217773	972.3196411132812	-79.02645874023438	-79.47822570800781	739.6786499023438	-238.2839508056641	-103.6870498657227	781.65087890625	-159.7363433837891	-91.51490020751953	811.742431640625	-224.6241455078125	175.1022338867188	1402.055908203125	-375.3161010742188	256.1669921875	1364.685180664062	-405.4140319824219	429.8900451660156	1140.78955078125	-384.580078125	431.046630859375	1138.579223632812	-316.5693054199219	456.4673156738281	906.9439697265625	-386.5855712890625	535.5254516601562	944.6831665039062	-371.9717712402344	465.2097778320312	1093.43994140625	-381.1436767578125	544.2410888671875	782.0302124023438	-350.9103393554688	508.2359313964844	821.7244873046875	-377.7391662597656	571.801025390625	865.044677734375	-359.5762023925781	26.45669174194336	1609.108642578125	-383.7041625976562	-145.6988067626953	1578.661743164062	-274.0570983886719	-107.9242858886719	1582.313720703125	-398.9054870605469	-11.31210803985596	1613.501953125	-210.0385437011719	136.3777770996094	828.8231201171875	-25.46542358398438	325.8082885742188	887.3983154296875	-373.3295593261719	200.1000823974609	893.8623657226562	-356.9020080566406	75.05400085449219	854.0794067382812	-138.7337951660156	216.1612548828125	421.6619262695312	-103.6140899658203	163.8920593261719	564.503173828125	-76.89241027832031	367.2168579101562	31.50766181945801	-112.1526641845703	255.4877471923828	271.9106750488281	-105.6588287353516	224.21826171875	73.35223388671875	-295.3802490234375	299.9357604980469	65.10326385498047	-275.7652893066406	231.8026123046875	37.41972351074219	-188.823486328125	442.6091003417969	42.50825500488281	-139.4460601806641	360.9725646972656	500.5505676269531	-424.9730529785156	310.925048828125	754.1851806640625	-417.5716857910156	591.6669311523438	129.8400726318359	-438.5577697753906	420.8634643554688	372.6133422851562	-444.5035095214844	390.4335021972656	51.04557037353516	-451.0755310058594	436.43798828125	68.04358673095703	-398.1950378417969	482.8028259277344	77.36650085449219	-492.1679992675781	639.4517211914062	146.1018218994141	-378.3425903320312	
